<?xml version="1.0" encoding="UTF-8" standalone="no"?>
<!-- Created with Inkscape (http://www.inkscape.org/) -->

<svg
   width="512"
   height="512"
   viewBox="0 0 512 512"
   version="1.1"
   id="svg1"
   inkscape:version="1.4.2 (f4327f4, 2025-05-13)"
   sodipodi:docname="triangle.svg"
   xmlns:inkscape="http://www.inkscape.org/namespaces/inkscape"
   xmlns:sodipodi="http://sodipodi.sourceforge.net/DTD/sodipodi-0.dtd"
   xmlns="http://www.w3.org/2000/svg"
   xmlns:svg="http://www.w3.org/2000/svg">
  <sodipodi:namedview
     id="namedview1"
     pagecolor="#505050"
     bordercolor="#eeeeee"
     borderopacity="1"
     inkscape:showpageshadow="0"
     inkscape:pageopacity="0"
     inkscape:pagecheckerboard="0"
     inkscape:deskcolor="#505050"
     inkscape:document-units="px"
     inkscape:zoom="2.3219153"
     inkscape:cx="146.64618"
     inkscape:cy="206.51055"
     inkscape:window-width="3840"
     inkscape:window-height="2120"
     inkscape:window-x="-12"
     inkscape:window-y="-12"
     inkscape:window-maximized="1"
     inkscape:current-layer="layer1"
     showgrid="false" />
  <defs
     id="defs1" />
  <g
     inkscape:label="Layer 1"
     inkscape:groupmode="layer"
     id="layer1">
    <path
       id="rect1"
       style="fill:#ff00ff"
       d="m 255.66016,29.983356 c -0.0585,6.03e-4 -0.11724,0.01079 -0.17578,0.01172 -0.57968,0.0096 -1.15365,0.0703 -1.73047,0.111328 -0.56942,0.04006 -1.13807,0.05787 -1.70703,0.128906 -0.60076,0.07522 -1.1904,0.205429 -1.78516,0.314453 -0.52825,0.09675 -1.05825,0.164875 -1.58399,0.289063 -1.11762,0.263571 -2.22321,0.584539 -3.30664,0.966796 -0.897,0.317333 -1.78484,0.675523 -2.66406,1.078126 -0.88658,0.405633 -1.75627,0.85062 -2.60547,1.33789 -0.0433,0.02473 -0.0857,0.04927 -0.1289,0.07422 -0.21048,0.121519 -0.38514,0.27882 -0.5918,0.404297 -1.02469,0.62544 -2.02682,1.290875 -2.98242,2.035156 -0.69017,0.532096 -1.31304,1.117011 -1.94922,1.695312 -0.39634,0.364034 -0.80185,0.711413 -1.18164,1.097657 -0.80489,0.809547 -1.5391,1.663045 -2.24414,2.542969 -0.14689,0.18506 -0.29807,0.36372 -0.44141,0.552734 -0.80217,1.048115 -1.52709,2.135013 -2.1875,3.263672 -0.0247,0.04242 -0.0555,0.07852 -0.0801,0.121094 L 5.0839844,432.65718 c -0.00364,0.006 -0.00613,0.0119 -0.00977,0.0176 l -0.7597657,1.31446 c -0.1029852,0.17837 -0.1722962,0.36545 -0.2714843,0.54492 -0.504322,0.91164 -0.9773862,1.83685 -1.3925782,2.80078 -0.1584415,0.36571 -0.2858627,0.73665 -0.4296875,1.10547 -0.3351359,0.86553 -0.6595743,1.73224 -0.9199219,2.63281 -0.1734796,0.59269 -0.2918924,1.18997 -0.42968745,1.78711 -0.1591861,0.69923 -0.34225183,1.38739 -0.45507813,2.10352 -0.21867677,1.36207 -0.36169585,2.72749 -0.40234374,4.09179 C 0.00436659,449.37448 0,449.69537 0,450.01656 c 0,0.0886 0.00124152,0.1772 0.00195313,0.26562 0.01044909,1.29844 0.11998024,2.56982 0.27929687,3.82618 0.0321401,0.24781 0.0792721,0.49143 0.1171875,0.73828 0.16507481,1.09633 0.38362733,2.17223 0.65625,3.22851 0.043297,0.16584 0.084905,0.33097 0.1308594,0.4961 3.0099669,10.9315 11.6277321,19.46142 22.6093751,22.35156 0.04502,0.0121 0.08972,0.0233 0.134766,0.0352 1.164376,0.301 2.351739,0.53904 3.564453,0.70898 0.202914,0.0293 0.404345,0.0664 0.607421,0.0918 1.262952,0.15239 2.540844,0.25575 3.845704,0.25781 0.05929,1.8e-4 0.118468,1.5e-4 0.177734,0 H 480 c 0.13848,0 0.2721,-0.0178 0.41016,-0.0195 0.51283,-0.007 1.02552,-0.0459 1.53906,-0.0781 0.59685,-0.0357 1.19385,-0.067 1.78125,-0.13476 0.25589,-0.0306 0.50998,-0.0803 0.76562,-0.11719 10.71824,-1.49873 19.68019,-8.25022 24.24219,-17.60351 0.0159,-0.0325 0.0311,-0.0651 0.0469,-0.0977 0.41272,-0.85355 0.78977,-1.72491 1.12695,-2.61914 0.0451,-0.11878 0.0872,-0.23814 0.13086,-0.35742 0.29023,-0.79859 0.55208,-1.60833 0.7793,-2.43555 0.0678,-0.24428 0.12549,-0.49051 0.1875,-0.73633 0.17528,-0.70339 0.33475,-1.41155 0.46289,-2.13281 0.0709,-0.39233 0.12341,-0.78662 0.17968,-1.18164 0.0832,-0.59628 0.16279,-1.19228 0.21289,-1.79883 0.0457,-0.53771 0.0636,-1.07667 0.082,-1.61719 0.0118,-0.3585 0.0528,-0.70896 0.0528,-1.07037 0,-0.11021 -0.0223,-0.21427 -0.0234,-0.32422 -0.0132,-1.34749 -0.10653,-2.69697 -0.29297,-4.04492 -0.0523,-0.38589 -0.1353,-0.75932 -0.20117,-1.14063 -0.15862,-0.90334 -0.35676,-1.80185 -0.5957,-2.69726 -0.14339,-0.54426 -0.28232,-1.08681 -0.45313,-1.61914 -0.25569,-0.78842 -0.56419,-1.56558 -0.88476,-2.3418 -0.39989,-0.9745 -0.84951,-1.91495 -1.33985,-2.83789 -0.18016,-0.33904 -0.32988,-0.68624 -0.52343,-1.02148 L 506.91602,432.65718 283.68555,46.008747 c -0.0258,-0.04463 -0.058,-0.0825 -0.084,-0.126954 -0.65388,-1.116965 -1.3713,-2.192354 -2.16406,-3.230468 -0.14351,-0.189654 -0.29433,-0.369006 -0.44141,-0.554688 -0.69974,-0.87513 -1.42621,-1.725517 -2.22461,-2.53125 -0.37745,-0.385165 -0.78189,-0.730578 -1.17578,-1.09375 -0.638,-0.582189 -1.26059,-1.173372 -1.95312,-1.708984 -1.1538,-0.901581 -2.35225,-1.733383 -3.60547,-2.460938 -0.003,-0.0019 -0.006,-0.004 -0.01,-0.0059 -0.0692,-0.03997 -0.14153,-0.06802 -0.21093,-0.107422 -0.95507,-0.544537 -1.93209,-1.042999 -2.9336,-1.484375 -0.43063,-0.190001 -0.87164,-0.328391 -1.30664,-0.498047 -0.63928,-0.248929 -1.2725,-0.513554 -1.92578,-0.720703 -0.57567,-0.183026 -1.15783,-0.310019 -1.73828,-0.458984 -0.53064,-0.135995 -1.05467,-0.293712 -1.5918,-0.402344 -0.63867,-0.12927 -1.28058,-0.201693 -1.92187,-0.291016 -0.48935,-0.06837 -0.97411,-0.161368 -1.4668,-0.207031 -0.63427,-0.05845 -1.26655,-0.06176 -1.90039,-0.08203 -0.45774,-0.01504 -0.91206,-0.06528 -1.37109,-0.06055 z"
       sodipodi:nodetypes="sccccccccsccccccccccccccccccssccccccccscsccccscccccccccsccccccscccccccccsscccccccccs" />
  </g>
</svg>
