<?xml version="1.0" encoding="UTF-8" standalone="no"?>
<!-- Created with Inkscape (http://www.inkscape.org/) -->

<svg
   width="256"
   height="256"
   viewBox="0 0 256 256"
   version="1.1"
   id="svg1"
   inkscape:version="1.4.2 (f4327f4, 2025-05-13)"
   sodipodi:docname="back_x.svg"
   xmlns:inkscape="http://www.inkscape.org/namespaces/inkscape"
   xmlns:sodipodi="http://sodipodi.sourceforge.net/DTD/sodipodi-0.dtd"
   xmlns="http://www.w3.org/2000/svg"
   xmlns:svg="http://www.w3.org/2000/svg">
  <sodipodi:namedview
     id="namedview1"
     pagecolor="#505050"
     bordercolor="#eeeeee"
     borderopacity="1"
     inkscape:showpageshadow="0"
     inkscape:pageopacity="0"
     inkscape:pagecheckerboard="0"
     inkscape:deskcolor="#505050"
     inkscape:document-units="px"
     inkscape:zoom="2.3408131"
     inkscape:cx="177.92963"
     inkscape:cy="60.449081"
     inkscape:window-width="3840"
     inkscape:window-height="2120"
     inkscape:window-x="-12"
     inkscape:window-y="-12"
     inkscape:window-maximized="1"
     inkscape:current-layer="layer1" />
  <defs
     id="defs1">
    <inkscape:path-effect
       effect="fillet_chamfer"
       id="path-effect2"
       is_visible="true"
       lpeversion="1"
       nodesatellites_param="F,0,1,1,0,9.0638981,0,1 @ F,0,1,1,0,9.0638981,0,1 @ F,0,1,1,0,9.0638981,0,1 @ F,0,1,1,0,9.0638981,0,1 @ F,0,1,1,0,9.0638981,0,1 @ F,0,1,1,0,9.0638981,0,1 @ F,0,1,1,0,9.0638981,0,1 @ F,0,1,1,0,9.0638981,0,1 @ F,0,1,1,0,9.0638981,0,1 @ F,0,1,1,0,9.0638981,0,1 @ F,0,0,1,0,9.0638981,0,1 @ F,0,1,1,0,9.0638981,0,1"
       radius="0"
       unit="px"
       method="auto"
       mode="F"
       chamfer_steps="1"
       flexible="false"
       use_knot_distance="true"
       apply_no_radius="true"
       apply_with_radius="true"
       only_selected="false"
       hide_knots="false" />
    <inkscape:path-effect
       effect="fillet_chamfer"
       id="path-effect1"
       is_visible="true"
       lpeversion="1"
       nodesatellites_param="F,0,1,1,0,25.062729,0,1 @ F,0,1,1,0,25.062729,0,1 @ F,0,1,1,0,25.062729,0,1 @ F,0,1,1,0,25.062729,0,1 @ F,0,1,1,0,25.062729,0,1 @ F,0,0,1,0,25.062729,0,1 @ F,0,1,1,0,25.062729,0,1"
       radius="0"
       unit="px"
       method="auto"
       mode="F"
       chamfer_steps="1"
       flexible="false"
       use_knot_distance="true"
       apply_no_radius="true"
       apply_with_radius="true"
       only_selected="false"
       hide_knots="false" />
  </defs>
  <g
     inkscape:label="Layer 1"
     inkscape:groupmode="layer"
     id="layer1"
     transform="translate(-175.33652,-200.91241)">
    <path
       id="rect1"
       style="fill:#ff3333;fill-opacity:1;stroke-width:1.05284"
       d="m 319.06737,11.14773 v 13.87431 a 9.0638981,9.0638981 45 0 0 9.0639,9.063898 h 93.87128 a 9.0638981,9.0638981 45 0 1 9.0639,9.063898 v 93.871284 a 9.0638981,9.0638981 45 0 0 9.0639,9.0639 h 13.87431 a 9.0638981,9.0638981 135 0 0 9.0639,-9.0639 l 0,-93.871284 a 9.0638981,9.0638981 135 0 1 9.0639,-9.063898 h 93.87128 a 9.0638981,9.0638981 135 0 0 9.0639,-9.063898 V 11.14773 a 9.0638981,9.0638981 45 0 0 -9.0639,-9.0638978 h -93.87128 a 9.0638981,9.0638981 45 0 1 -9.0639,-9.0638981 l 0,-93.8712841 a 9.0638981,9.0638981 45 0 0 -9.0639,-9.0639 h -13.87431 a 9.0638981,9.0638981 135 0 0 -9.0639,9.0639 v 93.8712841 a 9.0638981,9.0638981 135 0 1 -9.0639,9.0638981 h -93.87128 a 9.0638981,9.0638981 135 0 0 -9.0639,9.0638978 z"
       transform="matrix(0.92291043,0.92291043,-0.92291043,0.92291043,-92.576014,-100.38158)"
       inkscape:path-effect="#path-effect2"
       inkscape:original-d="M 319.06737,2.0838322 V 34.085938 H 431.06645 V 146.08502 h 32.00211 V 34.085938 H 575.06764 V 2.0838322 H 463.06856 V -109.91525 H 431.06645 V 2.0838322 Z" />
  </g>
</svg>
