<?xml version="1.0" encoding="UTF-8" standalone="no"?>
<!-- Created with Inkscape (http://www.inkscape.org/) -->

<svg
   width="256"
   height="256"
   viewBox="0 0 256 256"
   version="1.1"
   id="svg1"
   inkscape:version="1.4.2 (f4327f4, 2025-05-13)"
   sodipodi:docname="press_dpad.svg"
   xmlns:inkscape="http://www.inkscape.org/namespaces/inkscape"
   xmlns:sodipodi="http://sodipodi.sourceforge.net/DTD/sodipodi-0.dtd"
   xmlns="http://www.w3.org/2000/svg"
   xmlns:svg="http://www.w3.org/2000/svg">
  <sodipodi:namedview
     id="namedview1"
     pagecolor="#505050"
     bordercolor="#eeeeee"
     borderopacity="1"
     inkscape:showpageshadow="0"
     inkscape:pageopacity="0"
     inkscape:pagecheckerboard="0"
     inkscape:deskcolor="#505050"
     inkscape:document-units="px"
     inkscape:zoom="2.3408131"
     inkscape:cx="85.867599"
     inkscape:cy="56.604263"
     inkscape:window-width="3840"
     inkscape:window-height="2120"
     inkscape:window-x="-12"
     inkscape:window-y="-12"
     inkscape:window-maximized="1"
     inkscape:current-layer="layer1" />
  <defs
     id="defs1">
    <inkscape:path-effect
       effect="fillet_chamfer"
       id="path-effect9"
       is_visible="true"
       lpeversion="1"
       nodesatellites_param="F,0,1,1,0,19.544337,0,1 @ F,0,1,1,0,19.544337,0,1 @ F,0,1,1,0,19.544337,0,1 @ F,0,1,1,0,19.544337,0,1 @ F,0,1,1,0,19.544337,0,1 @ F,0,1,1,0,19.544337,0,1 @ F,0,1,1,0,19.544337,0,1 @ F,0,1,1,0,19.544337,0,1 @ F,0,1,1,0,19.544337,0,1 @ F,0,1,1,0,19.544337,0,1 @ F,0,1,1,0,19.544337,0,1 @ F,0,0,1,0,19.544337,0,1"
       radius="0"
       unit="px"
       method="auto"
       mode="F"
       chamfer_steps="1"
       flexible="false"
       use_knot_distance="true"
       apply_no_radius="true"
       apply_with_radius="true"
       only_selected="false"
       hide_knots="false" />
    <inkscape:path-effect
       effect="fillet_chamfer"
       id="path-effect8"
       is_visible="true"
       lpeversion="1"
       nodesatellites_param="F,0,0,1,0,18.360245,0,1 @ F,0,1,1,0,18.360245,0,1 @ F,0,1,1,0,18.360245,0,1 @ F,0,1,1,0,18.360245,0,1 @ F,0,1,1,0,18.360245,0,1 @ F,0,1,1,0,18.360245,0,1 @ F,0,1,1,0,18.360245,0,1 @ F,0,1,1,0,18.360245,0,1 @ F,0,1,1,0,18.360245,0,1 @ F,0,1,1,0,18.360245,0,1 @ F,0,1,1,0,18.360245,0,1 @ F,0,1,1,0,18.360245,0,1"
       radius="0"
       unit="px"
       method="auto"
       mode="F"
       chamfer_steps="1"
       flexible="false"
       use_knot_distance="true"
       apply_no_radius="true"
       apply_with_radius="true"
       only_selected="false"
       hide_knots="false" />
    <inkscape:path-effect
       effect="fillet_chamfer"
       id="path-effect6"
       is_visible="true"
       lpeversion="1"
       nodesatellites_param="F,0,0,1,0,18.360245,0,1 @ F,0,1,1,0,18.360245,0,1 @ F,0,1,1,0,18.360245,0,1 @ F,0,1,1,0,18.360245,0,1 @ F,0,1,1,0,18.360245,0,1 @ F,0,1,1,0,18.360245,0,1 @ F,0,1,1,0,18.360245,0,1 @ F,0,1,1,0,18.360245,0,1 @ F,0,1,1,0,18.360245,0,1 @ F,0,1,1,0,18.360245,0,1 @ F,0,1,1,0,18.360245,0,1 @ F,0,1,1,0,18.360245,0,1"
       radius="0"
       unit="px"
       method="auto"
       mode="F"
       chamfer_steps="1"
       flexible="false"
       use_knot_distance="true"
       apply_no_radius="true"
       apply_with_radius="true"
       only_selected="false"
       hide_knots="false" />
    <inkscape:path-effect
       effect="fillet_chamfer"
       id="path-effect6-4"
       is_visible="true"
       lpeversion="1"
       nodesatellites_param="F,0,0,1,0,18.360245,0,1 @ F,0,1,1,0,18.360245,0,1 @ F,0,1,1,0,18.360245,0,1 @ F,0,1,1,0,18.360245,0,1 @ F,0,1,1,0,18.360245,0,1 @ F,0,1,1,0,18.360245,0,1 @ F,0,1,1,0,18.360245,0,1 @ F,0,1,1,0,18.360245,0,1 @ F,0,1,1,0,18.360245,0,1 @ F,0,1,1,0,18.360245,0,1 @ F,0,1,1,0,18.360245,0,1 @ F,0,1,1,0,18.360245,0,1"
       radius="0"
       unit="px"
       method="auto"
       mode="F"
       chamfer_steps="1"
       flexible="false"
       use_knot_distance="true"
       apply_no_radius="true"
       apply_with_radius="true"
       only_selected="false"
       hide_knots="false" />
    <inkscape:path-effect
       effect="fillet_chamfer"
       id="path-effect9-5"
       is_visible="true"
       lpeversion="1"
       nodesatellites_param="F,0,1,1,0,19.544337,0,1 @ F,0,1,1,0,19.544337,0,1 @ F,0,1,1,0,19.544337,0,1 @ F,0,1,1,0,19.544337,0,1 @ F,0,1,1,0,19.544337,0,1 @ F,0,1,1,0,19.544337,0,1 @ F,0,1,1,0,19.544337,0,1 @ F,0,1,1,0,19.544337,0,1 @ F,0,1,1,0,19.544337,0,1 @ F,0,1,1,0,19.544337,0,1 @ F,0,1,1,0,19.544337,0,1 @ F,0,0,1,0,19.544337,0,1"
       radius="0"
       unit="px"
       method="auto"
       mode="F"
       chamfer_steps="1"
       flexible="false"
       use_knot_distance="true"
       apply_no_radius="true"
       apply_with_radius="true"
       only_selected="false"
       hide_knots="false" />
  </defs>
  <g
     inkscape:label="Layer 1"
     inkscape:groupmode="layer"
     id="layer1"
     transform="translate(-175.33652,-200.91241)">
    <path
       id="rect8"
       style="fill:#ffffff;stroke-width:1.00986"
       d="m 255.45761,220.45675 v 41.03241 a 19.544337,19.544337 135 0 1 -19.54434,19.54434 h -41.03241 a 19.544337,19.544337 135 0 0 -19.54434,19.54434 v 56.66914 a 19.544337,19.544337 45 0 0 19.54434,19.54434 l 41.03241,0 a 19.544337,19.544337 45 0 1 19.54434,19.54434 v 41.03241 a 19.544337,19.544337 45 0 0 19.54434,19.54434 h 56.66914 a 19.544337,19.544337 135 0 0 19.54434,-19.54434 v -41.03241 a 19.544337,19.544337 135 0 1 19.54434,-19.54434 l 41.03241,0 a 19.544337,19.544337 135 0 0 19.54434,-19.54434 V 300.57784 A 19.544337,19.544337 45 0 0 411.79218,281.0335 h -41.03241 a 19.544337,19.544337 45 0 1 -19.54434,-19.54434 v -41.03241 a 19.544337,19.544337 45 0 0 -19.54434,-19.54434 l -56.66914,0 a 19.544337,19.544337 135 0 0 -19.54434,19.54434 z"
       inkscape:path-effect="#path-effect9"
       inkscape:original-d="m 255.45761,200.91241 v 80.12109 h -80.12109 v 95.75782 h 80.12109 v 80.12109 h 95.75782 v -80.12109 h 80.12109 V 281.0335 h -80.12109 v -80.12109 z" />
    <path
       id="rect8-1"
       style="fill:#000000;stroke-width:1.00986"
       d="m 323.74219,210.92578 c -14.85814,-0.002 -29.7166,-0.0488 -44.57452,0.0345 -2.04364,0.0875 -4.10997,-0.10132 -6.13763,0.196 -4.54706,0.8434 -7.89601,5.44175 -7.56593,10.01131 0.0224,6.82874 -0.0346,13.65776 -0.002,20.48673 -0.004,7.72414 0.0519,15.45491 -0.23961,23.17322 -1.14204,11.3333 -9.55303,21.55288 -20.46568,24.83509 -2.02636,0.64323 -4.1336,0.99788 -6.24661,1.20067 -0.3768,0.0264 -1.14735,0.097 -1.67523,0.12143 -4.06816,0.18849 -8.14211,-0.003 -12.21305,0.0528 -10.00742,0.002 -20.01587,-0.0304 -30.02243,0.10731 -3.40763,-0.16624 -6.56389,2.10698 -8.12445,5.03684 -1.0109,1.81327 -1.31777,3.93598 -1.10597,5.98203 7.4e-4,18.71795 -0.12817,37.43856 0.0973,56.15468 0.36202,4.97245 5.32008,8.92373 10.22937,8.44142 14.00169,0.11875 28.00627,-0.11879 42.00614,0.17847 5.51932,0.14147 10.88099,2.23299 15.35434,5.40858 6.00232,4.26147 10.40784,10.8044 11.75992,18.07139 1.07445,5.46814 0.5264,11.0612 0.63598,16.59077 0.0171,10.66645 -0.0492,21.33875 0.14429,32.00115 0.78315,4.77526 5.63043,8.42114 10.43566,7.85922 18.88192,0.0266 37.76586,0.12087 56.64643,-0.08 4.6452,-0.31286 8.45977,-4.62562 8.52351,-9.22574 -0.006,-2.55876 -0.0203,-5.11806 0.007,-7.67803 0.0479,-12.12774 -0.12977,-24.2599 0.19773,-36.38413 0.86018,-10.62016 8.14906,-20.36981 17.96839,-24.4264 4.66389,-1.97792 9.79455,-2.40082 14.80881,-2.33154 9.20844,0.0859 18.41806,0.0422 27.62693,0.023 3.90788,-0.0333 7.82597,-0.001 11.72699,-0.13173 4.74352,-0.83872 8.3274,-5.68006 7.7638,-10.46133 -0.001,-18.92201 0.1309,-37.8473 -0.10383,-56.76708 -0.41626,-4.96384 -5.40637,-8.86629 -10.30841,-8.338 -14.23798,-0.11753 -28.47975,0.12406 -42.71516,-0.21089 -7.31433,-0.48648 -14.25335,-4.13495 -19.20241,-9.47761 -4.26413,-4.56183 -6.93901,-10.54311 -7.53086,-16.75699 -0.0765,-0.73749 -0.11696,-1.20121 -0.1629,-1.91975 -0.0185,-0.44996 -0.0578,-1.01838 -0.0697,-1.55307 -0.0737,-3.8639 0.0619,-7.72834 0.0105,-11.59302 -0.0194,-10.24055 0.0364,-20.48672 -0.13621,-30.72345 -0.76787,-4.59855 -5.25985,-8.16858 -9.90773,-7.93375 -2.47734,0.009 -4.95469,0.0173 -7.43203,0.0259 z" />
    <circle
       style="fill:#ff5e5e;fill-opacity:1;stroke-width:0.761158"
       id="path9"
       cx="223.33652"
       cy="328.91241"
       r="24" />
    <circle
       style="fill:#ff5e5e;fill-opacity:1;stroke-width:0.761158"
       id="path9-6"
       cx="383.33652"
       cy="328.91241"
       r="24" />
  </g>
</svg>
